<?xml version="1.0" encoding="utf-8"?>
<!-- Generator: Adobe Illustrator 17.1.0, SVG Export Plug-In . SVG Version: 6.00 Build 0)  -->
<!DOCTYPE svg PUBLIC "-//W3C//DTD SVG 1.1//EN" "http://www.w3.org/Graphics/SVG/1.1/DTD/svg11.dtd">
<svg version="1.1" id="Layer_1" xmlns="http://www.w3.org/2000/svg" xmlns:xlink="http://www.w3.org/1999/xlink" x="0px" y="0px"
	 viewBox="0 0 162 242" enable-background="new 0 0 162 242" xml:space="preserve">
<g>
	<path fill="#7C8C9E" d="M150.6,82.6c4.7-11.3,6.1-15.6,4.4-14.6c0,0,0,0,0,0c0,0-0.4,0.3-0.9,0.7c-3.7,2.9-18.3,14.4-25.3,23
		c-1.6,2-3.1,4.2-4.6,6.5c1.4-2.9,2.7-5.9,4-8.9c0.1-0.2,0.1-0.5,0.1-0.7c3.3-2.9,10.6-10.3,16.1-22.6c7.4-16.3,19.4-45.4,13.9-50.2
		c-5.5-4.8-16.6,8.9-18.9,16c-1.6,4.9-8.7,28.4-11.9,44.1c0.3-10.4,0.7-25.4,0.8-40.5c0-10-0.1-16.5-0.4-20.9v0l0,0
		c-0.5-7.7-1.4-8.6-2.1-9.7c0,0-2-4.8-4.1-3c-2.1,1.8-5.2,9.4-5.5,17.8c-0.3,7.9,4.6,51.9,9.7,67.9c0,0.3,0,0.6,0.1,0.8c0,0,0,0,0,0
		c-5.4,12.4-11.2,23.9-17.1,34.5c2.2-10.2,5.9-31.3,2.3-44.4C106.4,60.6,96,45.3,93,42.7c-1.9-1.6-2.7-0.3-2.8,1.6c0,0,0,0,0,0
		c0,0.6,0,1.3,0.1,2C91.2,58.2,98,75,99.8,82.6c1.6,6.8,6,34.5,7.4,43.3c-8.4,14.7-17,27.6-25.6,38.9c2.8-5.6,5.8-15.3,8.8-25
		c4-13,1.2-42.1-4.5-51.9c1.4,7.9-5,69.3-6,79.1c-0.1,0.1-0.1,0.1-0.1,0.2c-0.5-7.1-2.6-31.6-6.3-39.1C69.2,119.3,51,85,49.7,75.5
		c-1.6,11.3,3.7,38.5,9.7,49.1c5.8,10.1,18.1,29.3,20.3,42.7c-8.4,10.8-16.7,20.1-24.6,28.1c-0.1-1.5-0.4-4.9-0.8-9.6v0
		c-0.3-40-6.9-63.1-10.8-72.1c-0.2-0.5-0.4-0.9-0.5-1.3c-0.2-0.5-0.4-0.9-0.6-1.1c0,0,0,0.1,0.1,0.1c-0.5-0.9-1.1-1.5-1.6-1.6
		c-7.7-1.8,1.2,41.4,4.6,54.4c3,11.5,8.4,27.8,9.6,31.3c-7.2,7.2-14,13.4-20.2,18.5c3.9-11.3,13.4-45.7-6.9-67.9c0,0.1,0,0.1,0,0.2
		c-0.1-0.1-0.2-0.2-0.2-0.3c1.6,9.7,8.7,44.1,5.6,68.2c0,0,0.2-1,0.5-2.8c-0.1,1.4-0.2,2.7-0.2,3.7c-17.9,14.5-30.2,20.4-30.5,20.5
		c-0.6,0.3-0.9,1-0.6,1.6c0.3,0.6,1,0.9,1.6,0.6c0.1-0.1,11-5.2,27-17.5c8.4,5.1,16.9,8.8,26.1,10.2c9.6,1.4,5.5,4.8,31.9-1.8
		c0,0-14.6-12.6-25.6-13.5c-8.7-0.7-21.9,0.5-29.2,2.6c4.2-3.4,8.7-7.2,13.5-11.6c0.4-0.3,0.8-0.7,1.1-1.1c3.1,0.9,10.6,2.4,20.4,1
		c13-1.9,35.8-5.9,36.6-11.2c0.8-5.3-12.1-6.8-17.4-5.4c-4,1-24.5,6.8-35,11.3c2.6-2.6,5.3-5.3,8.1-8.2c7.6-1.2,35-6.4,46.2-17.3
		c8.8-8.6,11.8-11.9,9.9-11.7c0,0,0,0,0,0c-0.1,0-0.4,0.1-1.1,0.3c-4.6,1.2-22.5,5.9-32.3,11.1c-5.9,3.1-12.4,7.9-17.2,11.8
		c8.5-9.4,17.5-20.7,26.5-33.9c14-5.3,23.2-10.9,30.8-18.7c6.1-3.7,11.4-6.8,13.9-8.2c7.5-4,17.3-18.9,14.7-23.4
		c-2.6-4.5-8.8,2.3-8.8,2.3c-16.3,19.8-41.8,40.4-49.7,46.6c7-10.3,14-21.8,20.8-34.6C121.1,112.9,144.7,97.2,150.6,82.6z"/>
	<path fill="#7C8C9E" d="M117.9,5c0.1,0.4,0.2,0.9,0.4,1.5L117.9,5z"/>
</g>
</svg>
