<svg xmlns="http://www.w3.org/2000/svg" viewBox="0 0 364.5 330.5"><path fill="#FFF" d="M181.4 251.3l-.7-.3L6.4 169l175-82.3.7.3 174.3 82-175 82.3zM11.1 169l170.3 80.1L351.7 169 181.4 88.9 11.1 169z"/><path fill="#FFF" d="M181.4 251.3l-.7-.3L6.4 169l175-82.3.7.3 174.3 82-175 82.3zM11.1 169l170.3 80.1L351.7 169 181.4 88.9 11.1 169z"/><path d="M181.4 7.5c-.5 0-1 .4-1 1v79l1-.5 1 .5v-79c0-.6-.5-1-1-1zm-59.8 12.7c-.2-.5-.8-.7-1.3-.5-.5.2-.7.8-.5 1.3L152 98.7l.8 1.8.9-.4.9-.4-.8-1.8-32.2-77.7zm-51.7 34c-.4-.4-1-.4-1.4 0s-.4 1 0 1.4l56 56 1.5 1.5 1-.4 1-.4-1.5-1.5-56.6-56.6zm-34.7 51.3c-.5-.2-1.1 0-1.3.5-.2.5 0 1.1.5 1.3l52.7 21.8 2.5 1 1.2-.6 1.2-.5-2.5-1-54.3-22.5zm293.7.5c-.2-.5-.8-.7-1.3-.5L273.2 128l-2.5 1 1.2.6 1.2.6 2.5-1 52.7-21.8c.6-.3.8-.9.6-1.4zm-34.6-51.8c-.4-.4-1-.4-1.4 0l-56.5 56.5-1.5 1.5 1 .4 1 .4 1.5-1.5 56-56c.3-.2.3-.9-.1-1.3zm-51.8-34.6c-.5-.2-1.1 0-1.3.5L209 97.8l-.8 1.8.9.4.9.4.8-1.8L243 20.9c.2-.5 0-1.1-.5-1.3zm-87.1 11.7c-.1-.5-.6-.9-1.2-.8-.5.1-.9.6-.8 1.2l12.1 60.7.4 2 .9-.4.9-.4-.4-2-11.9-60.3zm-50 20.3c-.3-.5-.9-.6-1.4-.3-.5.3-.6.9-.3 1.4l34.9 52.3 1.1 1.7.9-.4.9-.4-1.1-1.7-35-52.6zM66.9 89.5c-.5-.3-1.1-.2-1.4.3-.3.5-.2 1.1.3 1.4l42.2 28.2 1.9 1.3 1-.5 1-.5-1.9-1.3-43.1-28.9zm230.3.2c-.3-.5-.9-.6-1.4-.3l-43.2 28.9-1.9 1.3 1 .5 1 .5 1.9-1.3L297 91.1c.4-.3.5-.9.2-1.4zm-38.4-38.4c-.5-.3-1.1-.2-1.4.3l-35.1 52.5-1.1 1.7.9.4.9.4 1.1-1.7L259 52.6c.4-.4.3-1-.2-1.3zm-50.2-20.8c-.5-.1-1.1.2-1.2.8l-12 60.2-.4 2 .9.4.9.4.4-2 12.1-60.7c.2-.5-.2-1-.7-1.1z" fill="#FFF"/><path fill="#FFF" d="M181.4 86.7l.7.3 174.3 82-175 82.3-.7-.3L6.4 169l175-82.3zM351.7 169L181.4 88.9 11.1 169l170.3 80.1L351.7 169z"/><path d="M181.4 330.5c.5 0 1-.4 1-1v-79l-1 .5-1-.5v79c0 .6.5 1 1 1zm59.8-12.7c.2.5.8.7 1.3.5.5-.2.7-.8.5-1.3l-32.2-77.7-.8-1.8-.9.4-.9.4.8 1.8 32.2 77.7zm51.7-34c.4.4 1 .4 1.4 0 .4-.4.4-1 0-1.4l-56-56-1.5-1.5-1 .4-1 .4 1.5 1.5 56.6 56.6zm34.7-51.3c.5.2 1.1 0 1.3-.5.2-.5 0-1.1-.5-1.3l-52.7-21.8-2.5-1-1.2.6-1.2.6 2.5 1 54.3 22.4zM33.9 232c.2.5.8.7 1.3.5L89.6 210l2.5-1-1.2-.6-1.2-.6-2.5 1-52.7 21.8c-.6.3-.8.9-.6 1.4zm34.6 51.8c.4.4 1 .4 1.4 0l56.5-56.5 1.5-1.5-1-.4-1-.4-1.5 1.5-56 56c-.3.2-.3.9.1 1.3zm51.8 34.6c.5.2 1.1 0 1.3-.5l32.2-77.7.8-1.8-.9-.4-.9-.4-.8 1.8-32.2 77.7c-.2.5 0 1.1.5 1.3zm87.1-11.7c.1.5.6.9 1.2.8.5-.1.9-.6.8-1.2l-12.1-60.7-.4-2-.9.4-.9.4.4 2 11.9 60.3zm50-20.3c.3.5.9.6 1.4.3.5-.3.6-.9.3-1.4L224.2 233l-1.1-1.7-.9.4-.9.4 1.1 1.7 35 52.6zm38.5-37.9c.5.3 1.1.2 1.4-.3.3-.5.2-1.1-.3-1.4l-42.2-28.2-1.9-1.3-1 .5-1 .5 1.9 1.3 43.1 28.9zm-230.3-.2c.3.5.9.6 1.4.3l43.2-28.9 1.9-1.3-1-.5-1-.5-1.9 1.3L66 246.9c-.6.3-.7.9-.4 1.4zm38.4 38.4c.5.3 1.1.2 1.4-.3l35.1-52.5 1.1-1.7-.9-.4-.9-.4-1.1 1.7-34.9 52.3c-.4.4-.3 1 .2 1.3zm50.2 20.8c.5.1 1.1-.2 1.2-.8l12-60.2.4-2-.9-.4-.9-.4-.4 2-12.1 60.7c-.2.5.2 1 .7 1.1zm-44.1-112.3c-.5 0-1-.4-1-1 0-.5.4-1 1-1h144.1c.5 0 1 .4 1 1 0 .5-.4 1-1 1H110.1zm46 15.6c2.4 0 4.3 1.9 4.3 4.3s-1.9 4.3-4.3 4.3-4.3-1.9-4.3-4.3 1.9-4.3 4.3-4.3zm0 7c1.5 0 2.7-1.2 2.7-2.7 0-1.5-1.2-2.7-2.7-2.7s-2.7 1.2-2.7 2.7c-.1 1.5 1.2 2.7 2.7 2.7zm7.4-6.6c0-.1.1-.2.2-.2h1c.1 0 .2.1.2.2v7.9c0 .1-.1.2-.2.2h-1c-.1 0-.2-.1-.2-.2v-7.9zm4.9.8c0-.5.4-.8.8-.8.5 0 .8.4.8.8s-.4.8-.8.8-.8-.3-.8-.8zm.1 2.7c0-.1.1-.2.2-.2h1c.1 0 .2.1.2.2v4.3c0 .1-.1.2-.2.2h-1c-.1 0-.2-.1-.2-.2v-4.3zm4.4.1c-.1-.2 0-.3.2-.3h1c.1 0 .2.1.2.1l1 2.2 1-2.2c.1-.1.2-.1.3-.1h.9c.2 0 .2.1.2.3l-2.2 4.5c0 .1-.1.1-.2.1h-.1c-.1 0-.2-.1-.2-.1l-2.1-4.5zm9.8-.4c1.2 0 2.2.9 2.2 2.2v.3c0 .1-.1.2-.2.2h-3c0 .5.5 1 1.1 1 .4 0 .7-.1.9-.3.1-.1.2-.1.3 0l.5.6c.1.1.1.2 0 .3-.4.4-1 .7-1.8.7-1.4 0-2.4-1.1-2.4-2.5 0-1.3 1-2.5 2.4-2.5zm.9 1.9c0-.4-.4-.8-.9-.8s-.9.4-.9.8h1.8zm13.3-5.5c2.4 0 4.3 1.9 4.3 4.3s-1.9 4.3-4.3 4.3-4.3-1.9-4.3-4.3 1.9-4.3 4.3-4.3zm0 7c1.5 0 2.7-1.2 2.7-2.7 0-1.5-1.2-2.7-2.7-2.7s-2.7 1.2-2.7 2.7c0 1.5 1.2 2.7 2.7 2.7zm7.3-5.8c0-.5.4-.8.8-.8.5 0 .8.4.8.8s-.4.8-.8.8-.8-.3-.8-.8zm.1 2.7c0-.1.1-.2.2-.2h1c.1 0 .2.1.2.2v4.3c0 .1-.1.2-.2.2h-1c-.1 0-.2-.1-.2-.2v-4.3zm5-3.5c0-.1.1-.2.2-.2h1c.1 0 .2.1.2.2v7.9c0 .1-.1.2-.2.2h-1c-.1 0-.2-.1-.2-.2v-7.9zm-102.1-60.1c1 0 2 .1 2.8.1.8 0 1.9 0 3.3-.1l.1.7-2.1.6c-.3.1-.4.3-.4.6v19.6c0 .3.2.4.5.5l2 .6v.7h-8.1l-.1-.7 1.9-.6c.3-.1.4-.3.4-.6v-17.7l-8.2 19.5-1.2.1-8.3-19.6v17.7c0 .3.2.5.4.6l1.9.6v.7h-6.7l-.1-.7 2-.6c.3-.1.4-.3.4-.5V153c0-.3-.1-.5-.4-.6l-2.1-.6v-.7c1.4 0 2.6.1 3.4.1 1 0 1.9 0 3-.1l7.7 18.2 7.9-18.2zm33.7 1.2l6.9 19c.3.7.5 1.2.7 1.4.2.3.5.4.9.6l1.5.4v.7h-8l-.1-.7 1.5-.4.4-.2c.1-.1.1-.2.1-.4s-.1-.5-.2-.8c-.1-.3-.3-.8-.5-1.3l-1.5-4.2h-7.5l-1.6 4.1c-.2.6-.4 1-.5 1.4-.1.3-.2.6-.2.8 0 .2 0 .3.1.4.1.1.2.2.4.2l1.4.4v.7H128l-.1-.7 1.6-.5c.4-.1.7-.3.9-.6.2-.3.4-.7.6-1.2l7.9-18.9 2-.2zm-4.9 12.6h6.4l-3-8.5-3.4 8.5zm29.2-10.7c1.2 0 2.4.1 3.6.1 1.1 0 2.3 0 3.6-.1l.1.6-1.8.5c-.2.1-.4.2-.4.4v15.4c0 .9 0 1.8-.1 2.6s-.2 1.5-.4 2.1c-.2.6-.4 1.1-.8 1.6-.3.5-.8.9-1.3 1.3s-1.1.7-1.8 1-1.6.5-2.6.8l-.2-.7c1-.4 1.8-.9 2.4-1.4.6-.5 1-1.1 1.3-1.7.3-.7.5-1.4.6-2.2.1-.8.1-1.7.1-2.8v-15.8c0-.2-.1-.4-.3-.5l-1.8-.6-.2-.6zm25.4 20.1H187l-.1-.6 1.8-.5c.2-.1.4-.2.4-.4v-17c0-.2-.1-.4-.3-.5l-1.8-.6v-.6c1.2 0 2.4.1 3.6.1 1 0 1.9 0 2.8-.1.9 0 1.8-.1 2.7-.1 3.4 0 5.9.8 7.6 2.3 1.7 1.5 2.5 3.8 2.5 6.8 0 3.5-.9 6.3-2.8 8.3-1.9 2-4.5 2.9-7.9 2.9h-4.9zm1.4-1.3c.6.1 1.1.1 1.7.2s1.1 0 1.6 0c2.5 0 4.5-.7 5.8-2.2 1.3-1.5 2-3.8 2-6.9 0-3-.6-5.2-1.9-6.7-1.3-1.4-3.2-2.2-6-2.2h-1.4c-.5 0-1.1.1-1.8.1V173zm39.8-20.7l6.9 19c.3.7.5 1.2.7 1.4.2.3.5.4.9.6l1.5.4v.7h-8l-.1-.7 1.5-.4.4-.2c.1-.1.1-.2.1-.4s-.1-.5-.2-.8c-.1-.3-.3-.8-.5-1.3l-1.5-4.2H226l-1.6 4.1c-.2.6-.4 1-.5 1.4-.1.3-.2.6-.2.8 0 .2 0 .3.1.4.1.1.2.2.4.2l1.4.4v.7h-6.7l-.1-.7 1.6-.5c.4-.1.7-.3.9-.6.2-.3.4-.7.6-1.2l7.9-18.9 2-.2zm-5 12.6h6.4l-3-8.5-3.4 8.5zm35.4-9.2v17.1h8.1l2.1-4.4.7-.1-.4 5.9-.1.1h-16.3l-.1-.7 2-.6c.3-.1.4-.2.4-.5V153c0-.3-.1-.5-.4-.6l-2.1-.6v-.7c1.4 0 2.8.1 4.1.1 1.3 0 2.7 0 4.1-.1l.1.7-2.1.6c-.3.1-.4.2-.4.5v1.7c.3.7.3 1.1.3 1.1zm-98-40.7l-1 .2c-.1 0-.2 0-.2-.2l-.1-.6c0-.1 0-.2.1-.2l1.7-1.4h.8c.1 0 .2.1.2.2v7.6c0 .1-.1.2-.2.2h-1c-.1 0-.2-.1-.2-.2V115zm9.4 4.9c.6-.2 2.2-1 2.6-2.3-.2.1-.8.3-1.4.3-1.2 0-2.4-.9-2.4-2.6 0-1.5 1.2-2.7 2.7-2.7 1.9 0 2.8 1.5 2.8 3.3 0 3.5-2.9 4.9-4 5.2-.2 0-.3 0-.3-.2l-.3-.7c0-.1.1-.3.3-.3zm2.9-4.2c0-.8-.4-1.7-1.4-1.7-.7 0-1.4.6-1.4 1.4 0 .8.6 1.4 1.4 1.4.8 0 1.3-.6 1.4-1.1zm11.7-3.1c.2 0 .3 0 .3.2l.3.7c.1.1 0 .3-.2.3-.6.2-2.2 1-2.6 2.3.2-.1.8-.3 1.4-.3 1.2 0 2.4.9 2.4 2.6 0 1.5-1.2 2.7-2.7 2.7-1.9 0-2.8-1.5-2.8-3.3-.1-3.5 2.8-4.9 3.9-5.2zm.2 5.7c0-.8-.6-1.4-1.4-1.4-.8 0-1.2.6-1.4 1 0 .8.4 1.7 1.4 1.7.8.1 1.4-.6 1.4-1.3zm7.7-1.4c0-2.6 1.1-4.2 3-4.2s3 1.6 3 4.2-1.1 4.2-3 4.2-3-1.6-3-4.2zm4.4 0c0-1.8-.5-2.8-1.4-2.8-.9 0-1.4 1-1.4 2.8 0 1.8.5 2.8 1.4 2.8.9-.1 1.4-1.1 1.4-2.8z" fill="#FFF"/><g fill-rule="evenodd" clip-rule="evenodd" fill="#FFF"><path d="M171.4 134.4c-.4.3-.7.6-1.1 1 3.9 2.7 8.3 4 13.5 1.8 2-.9 4-1.6 6-2.1-1.9.1-3.9.4-6 1.4-3.9 1.8-9 1.5-12.4-2.1zm20.1.5c3.1-.6 4.9-.2 7.9 1.1-2.3.3-4.6.3-7.9-1.1zM184 138c4.1 1.3 5.6 1.6 9.4.6-2.7-1-5.9-1.5-9.4-.6z"/><path d="M181.3 136.6c2.7-3.5 4.4-4.4 8.9-5.4-2.4 2.5-5.4 4.3-8.9 5.4zm-4.7.1c1.9-3.4 3.2-4.5 6.8-6.3-1.5 2.6-3.4 4.9-6.8 6.3zm-.4 2c3.2 2.7 4.3 3.9 8.9 3.7-2.2-1.7-4.9-3.2-8.9-3.7z"/></g></svg>